<?xml version="1.0" encoding="UTF-8"?>
<svg version="1.1" viewBox="0 0 1920 1080" width="1280" height="1280" xmlns="http://www.w3.org/2000/svg">
<path transform="translate(0)" d="m0 0h1920v1080h-1920z" fill="#FDFDFE"/>
<path transform="translate(0)" d="m0 0h1920v81h-1920z"/>
<path transform="translate(1042,323)" d="m0 0h20l13 2 13 4 7 4 6 4h23l10 3 1 1v9l-3 9-6 10-1 2 2 5 1 9v17l-1 8h-2l-2 9-3 1-1 4-7 6-8 4-5 1-5 5 2 25 1 1 1 7 5 7v9l-6 9-10 7-4 1h-9l-5-4-1-7-14 1-17-1-2 9-3 8-3 3h-10l-7-7-3-7-3-15v-11h-2v-16h2v-18l-5-5-2-3-10-3-7-6-5-10-1-14 2-10 1-14 2-5 1-10-3-3-3-8-2-7v-4l4-4 8-2 24-1 9-4h3v-2l10-2z" fill="#FDFDFE"/>
<path transform="translate(475,338)" d="m0 0h187v187l-7-6-44-44-26-36-9-13 6-9 14-18 14-19 4-5h-15l-14 19-10 13-6 9-3-3-13-19-13-18v-2l-16 1 13 19 12 16-1 2-73-73z" fill="#FDFDFE"/>
<path transform="translate(474,343)" d="m0 0 7 6 78 78-2 4-10 14-16 21-10 14-2 3h16l13-19 10-13 8-12 3-1 8 12 12 17 11 16 16 1 41 41v1h-183z" fill="#FDFDFE"/>
<path transform="translate(470,144)" d="m0 0h4v190h188v-190h4v190h190v4h-190v188h190v4l-188 1 37 37-3 3-35-35-1 184h-4v-190h-188v190h-4v-190h-190v-4h190v-188h-190v-4l184-1-33-33 3-3 35 35zm5 194 6 7 67 67v-3l-13-18-11-16 16-1 2 5 12 16 12 18 3 3 10-14 16-21 4-6h15l-14 18-14 19-10 13 4 7 26 36 8 10 47 47h1v-187zm-1 5v183h183l-6-7-35-35-16-1-11-16-12-17-8-12-4 2-8 12-13 18-9 13h-16l13-18 16-21 11-15-2-4-82-82z"/>
<path transform="translate(1011,252)" d="m0 0h83l5 3 1 2v34l-5 5h-85l-4-4-1-2v-32l2-4z" fill="#DDE0FD"/>
<path transform="translate(716,567)" d="m0 0h17l13 19 11 15 4 7 4-5 27-36h16l-6 9-14 18-14 19-4 6 12 17 26 36 3 5h-18l-24-34-7-10v-2l-5 5-11 16-13 18-5 7h-17l4-7 13-17 14-19 10-14-4-7-26-36-6-9z"/>
<path transform="translate(716,374)" d="m0 0h17l13 19 11 15 4 7 4-5 27-36h16l-6 9-14 18-14 19-4 6 12 17 26 36 3 5h-18l-24-34-7-10v-2l-5 5-11 16-13 18-5 7h-17l4-7 13-17 14-19 10-14-4-7-26-36-6-9z"/>
<path transform="translate(330,374)" d="m0 0h17l13 19 11 15 4 7 4-5 27-36h16l-6 9-14 18-14 19-4 6 12 17 26 36 3 5h-18l-24-34-7-10v-2l-5 5-11 16-13 18-5 7h-17l4-7 13-17 14-19 10-14-4-7-26-36-6-9z"/>
<path transform="translate(330,181)" d="m0 0h17l13 19 11 15 4 7 4-5 27-36h16l-6 9-14 18-14 19-4 6 12 17 26 36 3 5h-18l-24-34-7-10v-2l-5 5-11 16-13 18-5 7h-17l4-7 13-17 14-19 10-14-4-7-26-36-6-9z"/>
<path transform="translate(563,577)" d="m0 0h8l8 4 6 7 3 9 2 18v15l-2 18-3 9-7 8-7 3h-8l-6-3-7-8-3-7-2-14v-26l2-14 5-12 6-5z" fill="#FDFDFE"/>
<path transform="translate(370,577)" d="m0 0h8l8 4 6 7 3 9 2 18v15l-2 18-3 9-7 8-7 3h-8l-6-3-7-8-3-7-2-14v-26l2-14 5-12 6-5z" fill="#FDFDFE"/>
<path transform="translate(756,191)" d="m0 0h8l8 4 6 7 3 9 2 18v15l-2 18-3 9-7 8-7 3h-8l-6-3-7-8-3-7-2-14v-26l2-14 5-12 6-5z" fill="#FDFDFE"/>
<path transform="translate(563,191)" d="m0 0h8l8 4 6 7 3 9 2 18v15l-2 18-3 9-7 8-7 3h-8l-6-3-7-8-3-7-2-14v-26l2-14 5-12 6-5z" fill="#FDFDFE"/>
<path transform="translate(562,566)" d="m0 0h10l10 3 6 4 7 8 5 12 3 16v27l-3 16-5 12-9 10-9 4-5 1h-10l-10-3-9-7-6-10-4-14-1-7v-32l3-14 4-10 7-9 9-5zm1 11-8 4-4 5-4 10-2 14v26l2 14 5 10 8 7 3 1h8l8-4 6-7 3-9 2-18v-15l-2-18-4-11-8-7-5-2z"/>
<path transform="translate(369,566)" d="m0 0h10l10 3 6 4 7 8 5 12 3 16v27l-3 16-5 12-9 10-9 4-5 1h-10l-10-3-9-7-6-10-4-14-1-7v-32l3-14 4-10 7-9 9-5zm1 11-8 4-4 5-4 10-2 14v26l2 14 5 10 8 7 3 1h8l8-4 6-7 3-9 2-18v-15l-2-18-4-11-8-7-5-2z"/>
<path transform="translate(755,180)" d="m0 0h10l10 3 6 4 7 8 5 12 3 16v27l-3 16-5 12-9 10-9 4-5 1h-10l-10-3-9-7-6-10-4-14-1-7v-32l3-14 4-10 7-9 9-5zm1 11-8 4-4 5-4 10-2 14v26l2 14 5 10 8 7 3 1h8l8-4 6-7 3-9 2-18v-15l-2-18-4-11-8-7-5-2z"/>
<path transform="translate(562,180)" d="m0 0h10l10 3 6 4 7 8 5 12 3 16v27l-3 16-5 12-9 10-9 4-5 1h-10l-10-3-9-7-6-10-4-14-1-7v-32l3-14 4-10 7-9 9-5zm1 11-8 4-4 5-4 10-2 14v26l2 14 5 10 8 7 3 1h8l8-4 6-7 3-9 2-18v-15l-2-18-4-11-8-7-5-2z"/>
<path transform="translate(1042,323)" d="m0 0h20l13 2 13 4 7 4 6 4h23l10 3 1 1v9l-3 9-6 10-1 2 2 5 1 9v17l-1 8h-2l-2 9-3 1-1 4-7 6-8 4-5 1-5 5 2 25 1 1 1 7 5 7v9l-6 9-10 7-4 1h-9l-5-4-1-7-14 1-17-1-2 9-3 8-3 3h-10l-7-7-3-7-3-15v-11h-2v-16h2v-18l-5-5-2-3-10-3-7-6-5-10-1-14 2-10 1-14 2-5 1-10-3-3-3-8-2-7v-4l4-4 8-2 24-1 9-4h3v-2l10-2zm-4 3-19 5-8 4h-17l-11 2-5 3 1 10 5 9 2 2-2 9-1 4-1 15-3 10v9l4 11 6 7 5 3h3l-3-9v-9l3-3 7 1 5 5 9 12v3l-10-13-5-6h-6l-2 3 1 7 7 14 7 8-2 12-1 15 2 18 5 17 4 6 4 3h5l4-5 2-8v-6h-3l1-2 11 1h24l6-2 1-3 5-2-6 8v6l2 3h9l9-5 7-8v-10l-5-5-5-1 4-3-1-19-2-13 7-6 6-12v-8l-5-2-5 5-8 11-5 6-3 1 9-11 8-11 3-2 7 1 1 2v7l-3 10 7-2 9-8 5-10 1-5v-24l-2-12 6-9 4-10 1-6-5-3-11-2-17 1-10-6-9-4-16-4z"/>
<path transform="translate(900,172)" d="m0 0 5 1 5 22 6-16 5 1 4 10 1 6h2l1-9 3-15 5 1-2 14-4 16-5 1-3-3-4-12-2 4-4 10-4 1-3-2-6-24z"/>
<path transform="translate(1011,252)" d="m0 0h83l5 3 1 2v34l-5 5h-85l-4-4-1-2v-32l2-4zm-1 2-3 3v34l3 3h85l3-3v-34l-3-3z"/>
<path transform="translate(1165,172)" d="m0 0h5l5 8 3 9h2l1-5 6-12 5 1 1 1 2 20v9l-4 1-1-1-2-21-7 14h-5l-6-13-1 4-1 16-4 1-1-1v-15l1-14z"/>
<path transform="translate(1420,179)" d="m0 0h8l5 3 3 7-1 9-5 5-2 1h-8l-5-3-3-5v-9l4-6z"/>
<path transform="translate(1009,179)" d="m0 0h9l6 5 1 3v9l-3 5-4 3h-9l-4-2-3-5-1-7 3-8z"/>
<path transform="translate(1131,179)" d="m0 0h9l6 5 1 2v11l-5 6-2 1h-9l-6-5-1-2v-11l5-6z"/>
<path transform="translate(1540,179)" d="m0 0h9l4 1 2-1h9l4 4 1 3v17l-4 1-1-1-1-19h-6l-2 1-1 19-5-1-1-18-1-1h-8v20l-5-1v-20l3-3z"/>
<path transform="translate(1036,179)" d="m0 0h9l4 1 2-1h9l4 4 1 3v17l-4 1-1-1-1-19h-6l-2 1-1 19-5-1-1-18-1-1h-8v20l-5-1v-20l3-3z"/>
<path transform="translate(1491,171)" d="m0 0 9 2 2 4-4 1-9-1-5 3-2 4v7l3 6 5 2h8v-8h-7l-1-5h12l1 2v13l-5 3h-12l-6-4-3-4-1-3v-10l4-8 6-3z"/>
<path transform="translate(1077,179)" d="m0 0h9l5 4 1 2v7l-10 2h-6l2 4 2 1h6l5-1-1 5-2 1h-10l-5-3-3-5v-9l4-6z"/>
<path transform="translate(947,179)" d="m0 0h9l5 4 1 2v7l-10 2h-6l2 4 2 1h6l5-1-1 5-2 1h-10l-5-3-3-5v-9l4-6z"/>
<path transform="translate(1581,179)" d="m0 0h9l5 4 1 8-4 2-13 1 5 5 11-1-1 5-2 1h-11l-6-5-1-3v-10l5-6z"/>
<path transform="translate(1447,179)" d="m0 0h9l5 4 1 8-4 2-13 1 5 5 11-1-1 5-2 1h-11l-6-5-1-3v-10l5-6z"/>
<path transform="translate(1512,179)" d="m0 0h11l5 5v17l-4 3h-11l-5-4v-7l5-4 10-1-2-4-11 1-1-4z"/>
<path transform="translate(1334,179)" d="m0 0h11l5 5v17l-4 3h-11l-5-4v-6l3-4 12-2-2-4-11 1-1-3z"/>
<path transform="translate(166,31)" d="m0 0h6l5 16 5-15 1-1h6l1 23h-4l-1-18-5 15-5 1-3-7-2-7-2 16h-3v-22z" fill="#FBFBFE"/>
<path transform="translate(1199,179)" d="m0 0 5 1 6 15 2-3 4-13 5 1-2 10-5 12-5 8-3 3-4-1v-3l5-6-2-5-6-14z"/>
<path transform="translate(224,30)" d="m0 0h3v24l-11 1-4-4v-11l3-3h7l2 1z" fill="#FBFBFE"/>
<path transform="translate(1389,172)" d="m0 0h23v4l-1 1h-8v27l-5-1v-26h-9l-1-4z"/>
<path transform="translate(1305,172)" d="m0 0h24v4l-2 1h-7v26l-4 1-1-1v-26h-9z"/>
<path transform="translate(1233,172)" d="m0 0h24v4l-2 1h-7v26l-4 1-1-1v-26h-9z"/>
<path transform="translate(1363,179)" d="m0 0h9l3 2-1 4-7-1-5 1-1 9 2 4 7 1 5-1-1 5-1 1h-10l-6-4-2-5v-7l3-6z"/>
<path transform="translate(986,179)" d="m0 0h9l3 2-1 4-7-1-5 1-1 9 2 4 7 1 5-1-1 5-1 1h-10l-6-4-2-5v-7l3-6z"/>
<path transform="translate(1280,179)" d="m0 0h9l3 2-1 4-8-1-4 2-1 2v7l4 4 9-1 1 4-3 2h-9l-5-3-3-5v-9l4-6z"/>
<path transform="translate(1108,172)" d="m0 0 4 1v7h8v4h-8l1 14 8 2-2 4h-8l-4-4v-27z"/>
<path transform="translate(41,37)" d="m0 0h10l3 3v14l-4-1-2 1h-7l-2-2v-6l2-2h9v-4h-10z" fill="#FAFBFE"/>
<path transform="translate(269,37)" d="m0 0h11l2 2v15l-4-1-1 1h-8l-2-3 1-6 1-1 9-1v-2l-10-1z" fill="#FBFBFE"/>
<path transform="translate(18,31)" d="m0 0h3v9h10v-9h4v23h-4v-11h-10v11h-3z" fill="#FAFAFE"/>
<path transform="translate(197,37)" d="m0 0h8l4 4-1 5-1 1h-10l1 4h10v3l-9 1-4-2-2-5 1-8z" fill="#FAFAFE"/>
<path transform="translate(95,37)" d="m0 0h8l3 3v6l-1 1h-10l2 4h8l1 3-9 1-5-3-1-2v-9z" fill="#FBFBFE"/>
<path transform="translate(1422,183)" d="m0 0 6 1 3 6-1 6-4 4-6-1-3-4v-7z" fill="#FAFAFE"/>
<path transform="translate(1133,183)" d="m0 0 7 1 2 3v9l-4 4-6-1-3-3v-9z" fill="#FAFBFE"/>
<path transform="translate(1011,183)" d="m0 0h5l4 5v7l-5 5-6-1-2-3v-9z" fill="#FBFBFE"/>
<path transform="translate(1048,382)" d="m0 0 5 2h5v2l-4 1v11l-2 7h-4l-3-11v-8h-3v-2l5-1z"/>
<path transform="translate(967,170)" d="m0 0h5v34h-4l-1-2z"/>
<path transform="translate(75,30)" d="m0 0h3v13h3l2-4 2-2 4 1-5 6 5 10-5-1-4-6-2-1v8h-3z" fill="#FAFBFE"/>
<path transform="translate(1262,179)" d="m0 0h4l1 3v21l-4 1-2-3v-21z"/>
<path transform="translate(252,37)" d="m0 0h12v3l-10 1-1 2 9 2 2 2v6l-5 2-9-1v-2l11-1v-3l-9-2-2-2v-5z" fill="#FAFAFE"/>
<path transform="translate(111,37)" d="m0 0h11l1 3h-11l1 3 9 3 1 1v6l-5 2-9-1v-2l11-1-3-3-8-3v-6z" fill="#FAFAFE"/>
<path transform="translate(947,264)" d="m0 0h5l3 3 1 5-2 4-7 1-3-2-1-6z" fill="#FBFBFE"/>
<path transform="translate(232,37)" d="m0 0h3l1 14 7-1v-13h3v17l-11 1-3-2z" fill="#FAFBFE"/>
<path transform="translate(128,33)" d="m0 0h4v4h5v3h-5v11h4l1 3h-8l-1-2v-12h-3l1-3h2z" fill="#FBFBFE"/>
<path transform="translate(152,37)" d="m0 0h8l1 3-8 1-1 1v9h9v3l-8 1-5-3-1-8 2-5z" fill="#F8F9FE"/>
<path transform="translate(1022,375)" d="m0 0 6 1 2 3-1 6-3 2-6-1-2-3 1-5z"/>
<path transform="translate(1074,375)" d="m0 0 5 1 2 3v5l-4 3-5-1-3-4 2-5z"/>
<path transform="translate(62,37)" d="m0 0h8l1 3-8 1-1 2v8h9v3l-8 1-4-2-1-2v-11z" fill="#FAFAFE"/>
<path transform="translate(922,260)" d="m0 0 2 2 2 10 1 1 3-9 3 1 2 9h2l1-10 2-4 1 3-3 13h-4l-3-8-3 9h-3l-4-16z"/>
<path transform="translate(217,40)" d="m0 0h6l1 1v8l-4 3-4-1-1-2v-7z"/>
<path transform="translate(1048,384)" d="m0 0 5 2-1 14-1 3h-2l-2-8v-10z" fill="#FEFEFE"/>
<path transform="translate(1032,265)" d="m0 0 7 1v6 3l1 2-4-2v-2h-3v4h-2v-11z" fill="#38393D"/>
<path transform="translate(140,37)" d="m0 0 4 1v16h-4z" fill="#FCFCFE"/>
<path transform="translate(900,261)" d="m0 0 4 2 3 3 4-5 2 1-4 5 1 4 3 4v2l-3-1-4-5-4 6h-2l2-5 2-2-1-4z"/>
<path transform="translate(1079,183)" d="m0 0 7 1 1 4-1 1-11 1 1-5z" fill="#F6F7FE"/>
<path transform="translate(949,183)" d="m0 0 7 1 1 4-1 1-11 1 1-5z" fill="#F6F7FE"/>
<path transform="translate(1516,193)" d="m0 0h7v6l-2 1h-6l-2-2v-4z" fill="#F9F9FE"/>
<path transform="translate(1338,193)" d="m0 0h7v6l-2 1h-6l-2-2 1-4z" fill="#F9FAFE"/>
<path transform="translate(1583,183)" d="m0 0 6 1 2 4-1 1-11 1 1-5z" fill="#F6F7FE"/>
<path transform="translate(1449,183)" d="m0 0 6 1 2 4-1 1-11 1 1-5z" fill="#F6F7FE"/>
<path transform="translate(962,264)" d="m0 0 7 1 1 1v11h-2l-1-10-6-1v11h-2v-11z"/>
<path transform="translate(947,264)" d="m0 0h5l3 3 1 5-2 4-7 1-3-2-1-6zm0 2-2 3 1 6 5 1 3-4-1-5-1-1z"/>
<path transform="translate(1061,268)" d="m0 0h5l2 4-1 1h-5l1 2h4v2h-6l-2-3 1-5z" fill="#202022"/>
<path transform="translate(1043,268)" d="m0 0 6 1v4l-5 1 5 1v2h-6l-2-2v-5z" fill="#212123"/>
<path transform="translate(272,46)" d="m0 0h7l-1 4-6 2-1-5z"/>
<path transform="translate(96,40)" d="m0 0h6l1 4-1 1h-7z"/>
<path transform="translate(1049,272)" d="m0 0 5 1 2 2-7 2-6-2 1-2z" fill="#EBEDFE"/>
<path transform="translate(198,40)" d="m0 0h6l1 4-1 1h-7z"/>
<path transform="translate(1052,268)" d="m0 0h5v2l-3 1 4 3-1 3h-6l1-2h3l-4-3z"/>
<path transform="translate(44,46)" d="m0 0h6l-1 5-5 1-1-5z"/>
<path transform="translate(1262,170)" d="m0 0 5 1-1 4h-4l-1-4z"/>
<path transform="translate(1069,266)" d="m0 0h1v11l-2-2zm-2 6m-5 1h5l-1 3-4-1z" fill="#EFF1FE"/>
</svg>
